<mxfile host="65bd71144e">
    <diagram id="T7yb_eWrIB6BnwY6WwFR" name="Page-1">
        <mxGraphModel dx="1074" dy="741" grid="1" gridSize="10" guides="1" tooltips="1" connect="1" arrows="1" fold="1" page="1" pageScale="1" pageWidth="850" pageHeight="1100" math="0" shadow="0">
            <root>
                <mxCell id="0"/>
                <mxCell id="1" parent="0"/>
                <mxCell id="2" value="" style="rounded=0;whiteSpace=wrap;html=1;" vertex="1" parent="1">
                    <mxGeometry x="40" y="90" width="760" height="630" as="geometry"/>
                </mxCell>
                <mxCell id="3" value="Division with loops" style="rounded=0;whiteSpace=wrap;html=1;align=left;" vertex="1" parent="1">
                    <mxGeometry x="40" y="90" width="760" height="110" as="geometry"/>
                </mxCell>
                <mxCell id="4" value="" style="shape=partialRectangle;whiteSpace=wrap;html=1;bottom=0;right=0;fillColor=none;rotation=-180;" vertex="1" parent="1">
                    <mxGeometry x="60" y="270" width="170" height="30" as="geometry"/>
                </mxCell>
                <mxCell id="5" value="Insert 2 integers to divide" style="text;html=1;align=center;verticalAlign=middle;resizable=0;points=[];autosize=1;strokeColor=none;fillColor=none;" vertex="1" parent="1">
                    <mxGeometry x="55" y="220" width="150" height="20" as="geometry"/>
                </mxCell>
                <mxCell id="6" value="Integer 1..." style="text;html=1;align=center;verticalAlign=middle;resizable=0;points=[];autosize=1;strokeColor=none;fillColor=none;" vertex="1" parent="1">
                    <mxGeometry x="70" y="270" width="70" height="20" as="geometry"/>
                </mxCell>
                <mxCell id="7" value="" style="shape=partialRectangle;whiteSpace=wrap;html=1;bottom=0;right=0;fillColor=none;rotation=-180;" vertex="1" parent="1">
                    <mxGeometry x="60" y="360" width="170" height="30" as="geometry"/>
                </mxCell>
                <mxCell id="8" value="Integer 2..." style="text;html=1;align=center;verticalAlign=middle;resizable=0;points=[];autosize=1;strokeColor=none;fillColor=none;" vertex="1" parent="1">
                    <mxGeometry x="70" y="360" width="70" height="20" as="geometry"/>
                </mxCell>
                <mxCell id="9" value="Calculate" style="rounded=0;whiteSpace=wrap;html=1;shadow=1;" vertex="1" parent="1">
                    <mxGeometry x="60" y="430" width="120" height="40" as="geometry"/>
                </mxCell>
                <mxCell id="10" value="The answer is ...." style="text;html=1;align=center;verticalAlign=middle;resizable=0;points=[];autosize=1;strokeColor=none;fillColor=none;" vertex="1" parent="1">
                    <mxGeometry x="60" y="500" width="110" height="20" as="geometry"/>
                </mxCell>
            </root>
        </mxGraphModel>
    </diagram>
</mxfile>